<svg xmlns="http://www.w3.org/2000/svg" version="1.1" width="525" height="521">

<path d="M0 0 C0.66 0 1.32 0 2 0 C3.52124023 1.93334961 3.52124023 1.93334961 5.30859375 4.65234375 C5.96786865 5.6484668 6.62714355 6.64458984 7.30639648 7.67089844 C8.00966064 8.74887695 8.7129248 9.82685547 9.4375 10.9375 C10.1581665 12.0296582 10.87883301 13.12181641 11.62133789 14.24707031 C16.22280356 21.23412036 20.74970764 28.26771206 25.25854492 35.31469727 C28.59446811 40.4831272 32.20461214 45.36023146 35.94921875 50.2421875 C38.59053275 53.79412595 40.93389518 57.49107491 43.2734375 61.24609375 C46.0163756 65.62114207 48.90939139 69.8940603 51.78564453 74.18212891 C53.18523488 76.27729371 54.57526639 78.37865015 55.96484375 80.48046875 C56.48667236 81.26800537 57.00850098 82.05554199 57.54614258 82.86694336 C58.56989639 84.41215148 59.5919737 85.95847216 60.61206055 87.50610352 C63.48371032 91.83256865 66.4695629 96.00121266 69.69873047 100.06933594 C71 102 71 102 73 107 C115.57 107 158.14 107 202 107 C201.67 109.31 201.34 111.62 201 114 C200.34 114 199.68 114 199 114 C198.87753906 114.71542969 198.75507813 115.43085938 198.62890625 116.16796875 C197.98864625 119.05112713 197.06448444 121.58592473 195.9375 124.3125 C195.57527344 125.19550781 195.21304687 126.07851562 194.83984375 126.98828125 C194.56269531 127.65214844 194.28554688 128.31601563 194 129 C193.34 129 192.68 129 192 129 C191.89300781 129.53238281 191.78601563 130.06476563 191.67578125 130.61328125 C190.81788727 133.64318426 189.53139624 136.33980089 188.1875 139.1875 C186.37720157 143.04084952 184.60295027 146.8945965 182.9375 150.8125 C181.34122232 154.44221023 179.3948779 157.69127171 177.23046875 161.0078125 C175.94047554 163.09637294 174.87194954 165.22407754 173.8125 167.4375 C172 171 172 171 170 172 C169.03318321 173.66577091 168.0711722 175.33464536 167.14160156 177.02148438 C165.27530961 180.2559647 163.07363986 183.2358409 160.875 186.25 C157.37497843 191.08102934 157.37497843 191.08102934 154 196 C153.34 196 152.68 196 152 196 C151.74734375 196.55042969 151.4946875 197.10085937 151.234375 197.66796875 C147.33151581 205.04140842 141.68063446 211.91360593 136 218 C135.34 218 134.68 218 134 218 C134 218.66 134 219.32 134 220 C133.34 220 132.68 220 132 220 C131.77054687 220.5465625 131.54109375 221.093125 131.3046875 221.65625 C124.77781123 233.38117743 111.11316227 244.68168577 100.96875 253.30859375 C98.72218493 255.23867842 96.55416096 257.24418139 94.375 259.25 C88.69293653 264.38134039 82.67823476 269.04130401 76.62939453 273.72607422 C74.3709539 275.49181338 72.15651627 277.31009726 69.9375 279.125 C64.80404359 283.23674907 59.42786323 286.95001688 53.98828125 290.64306641 C51.70306628 292.20264706 49.42956738 293.77859864 47.15625 295.35546875 C45.45842862 296.52878373 43.76051226 297.70196128 42.0625 298.875 C40.85509155 299.71454224 40.85509155 299.71454224 39.62329102 300.57104492 C35.52293449 303.39210048 31.487646 305.82335733 27 308 C25.55051233 309.22401181 24.10187574 310.44917834 22.66796875 311.69140625 C20.17860595 313.64441922 17.46860854 315.06199594 14.68359375 316.55078125 C12.05421992 317.97071966 9.46537568 319.45194594 6.87915039 320.94873047 C2.17272876 323.67226918 -2.538402 326.32010051 -7.4375 328.6875 C-10.36229733 330.10471887 -12.92086217 331.5877541 -15.5 333.5625 C-18.95298448 336.17468684 -22.63593994 337.52780732 -26.66796875 339.0390625 C-29.18563824 339.98521135 -29.18563824 339.98521135 -31.875 341.9375 C-38.26934373 346.15776686 -45.73704472 348.56953075 -52.90625 351.19921875 C-55.46402683 352.17747295 -57.97824399 353.24482104 -60.5 354.3125 C-66.0372396 356.64249182 -71.63818596 358.7512037 -77.27172852 360.83251953 C-81.55536754 362.42616752 -85.72208861 364.17099741 -89.8737793 366.07592773 C-115.68682063 377.29447883 -148.85841594 386.52391247 -177 386 C-180.44007098 382.55992902 -179.12498369 371.66430703 -179.25 366.9375 C-178.93551876 340.94991429 -175.2279938 309.82679111 -160 288 C-159.566875 286.948125 -159.13375 285.89625 -158.6875 284.8125 C-154.53270273 274.76624417 -147.39529978 266.55536973 -140.29736328 258.48535156 C-139.14804794 257.16950012 -138.02327777 255.83229857 -136.90234375 254.4921875 C-131.58298809 248.22255681 -124.94376515 240.64792172 -117 238 C-117 237.34 -117 236.68 -117 236 C-114.91796875 234.37890625 -114.91796875 234.37890625 -112.1875 232.5625 C-109.18304744 230.5551962 -106.45248587 228.6643285 -104 226 C-104.99644531 225.89816406 -105.99289063 225.79632813 -107.01953125 225.69140625 C-111.17637607 225.09100791 -114.87162561 223.64746797 -118.6875 221.9375 C-119.38447998 221.62731934 -120.08145996 221.31713867 -120.79956055 220.99755859 C-136.42354875 213.82395438 -149.23804542 202.3343574 -161 190 C-161.62519531 189.34515625 -162.25039062 188.6903125 -162.89453125 188.015625 C-171.35681307 178.74080558 -178.33322375 168.1707141 -184 157 C-184.48984375 156.11570313 -184.9796875 155.23140625 -185.484375 154.3203125 C-192.8644739 140.58724186 -198.58220936 123.71965267 -198 108 C-190.77001813 107.04027473 -183.69998105 106.86360677 -176.41186523 106.88647461 C-175.1816011 106.88632858 -173.95133698 106.88618256 -172.68379211 106.8860321 C-169.33729967 106.88660612 -165.99087022 106.89159386 -162.64438891 106.89860606 C-159.13703777 106.90489114 -155.62968562 106.90544746 -152.12232971 106.90663147 C-145.49275238 106.90972967 -138.86319169 106.91792254 -132.23362166 106.92798096 C-124.6809592 106.93918922 -117.12829592 106.94466439 -109.57562721 106.94967639 C-94.05040852 106.96010653 -78.52520642 106.97767649 -63 107 C-62.71125 106.38125 -62.4225 105.7625 -62.125 105.125 C-61 103 -61 103 -59 101 C-58.32433765 99.38437836 -57.64994932 97.76821234 -56.98193359 96.14941406 C-54.94995118 91.70148438 -52.32471239 87.56381611 -49.8125 83.375 C-48.93803223 81.9063147 -48.93803223 81.9063147 -48.04589844 80.40795898 C-44.38111126 74.26593422 -40.66909147 68.15571916 -36.8984375 62.078125 C-33.54621898 56.64284065 -30.27999721 51.1558959 -27.00341797 45.67480469 C-26.13241031 44.22100602 -25.25612775 42.7703702 -24.37890625 41.3203125 C-21.52947574 36.60987183 -18.77460871 31.85311937 -16.0625 27.0625 C-13.04468039 21.73727573 -9.87506083 16.53898927 -6.54296875 11.40234375 C-4.16110762 7.69387643 -1.91287496 3.97289414 0 0 Z " fill="#F53456" transform="translate(260,55)"/>
<path d="M0 0 C0.99 0 1.98 0 3 0 C4.6484375 1.94140625 4.6484375 1.94140625 6.375 4.5625 C6.98601562 5.47515625 7.59703125 6.3878125 8.2265625 7.328125 C9.10441406 8.65070313 9.10441406 8.65070313 10 10 C10.91030376 11.27539884 11.82604219 12.54695778 12.75 13.8125 C24.83546049 30.93356902 33.09081044 50.32343237 40 70 C40.37705078 71.06395996 40.37705078 71.06395996 40.76171875 72.14941406 C45.54197954 85.82896748 48.43516626 99.7568878 51 114 C51.19126465 114.98726074 51.3825293 115.97452148 51.57958984 116.99169922 C52.8998813 124.14318085 53.24713695 130.98754924 53.125 138.25 C53.11597656 139.29285156 53.10695313 140.33570313 53.09765625 141.41015625 C53.07444336 143.94036161 53.04180149 146.47004546 53 149 C48.58339099 149.0589002 44.16688531 149.09389517 39.75 149.125 C38.51507813 149.14175781 37.28015625 149.15851563 36.0078125 149.17578125 C29.03416966 149.21248463 22.48559661 148.78773242 15.63134766 147.49462891 C12.19953226 146.84953167 8.78469634 146.49286513 5.3125 146.125 C-2.66794535 145.19875905 -10.37223823 143.46503885 -18.14746094 141.47167969 C-19.72167434 141.0708652 -21.30172502 140.69308922 -22.8828125 140.3203125 C-28.82406204 138.84862683 -34.48456366 136.7615504 -40.1875 134.5625 C-40.93636475 134.2739917 -41.68522949 133.9854834 -42.45678711 133.68823242 C-46.77047589 131.98742833 -50.92453933 130.10364476 -55.05053711 127.98901367 C-56.95807835 127.02126795 -58.88355823 126.11012262 -60.82421875 125.2109375 C-70.20461175 120.79261035 -78.00111168 115.55822832 -86 109 C-87.64333671 107.76749746 -89.28890283 106.53795723 -90.9375 105.3125 C-94.68307912 102.38388638 -98.6191476 99.18201899 -101 95 C-99.62528997 90.87586992 -96.78763905 89.66984744 -93.25 87.5 C-92.62867188 87.10941406 -92.00734375 86.71882813 -91.3671875 86.31640625 C-89.58485474 85.19962813 -87.79311963 84.09934085 -86 83 C-84.60007812 82.11828125 -84.60007812 82.11828125 -83.171875 81.21875 C-81 80 -81 80 -79 80 C-79 79.34 -79 78.68 -79 78 C-77.1015625 76.4921875 -77.1015625 76.4921875 -74.625 74.875 C-73.81289063 74.33617187 -73.00078125 73.79734375 -72.1640625 73.2421875 C-70 72 -70 72 -68 72 C-67.505 70.515 -67.505 70.515 -67 69 C-65.14453125 67.3515625 -65.14453125 67.3515625 -62.8125 65.625 C-59.98842519 63.50694389 -57.2273254 61.37773197 -54.5625 59.0625 C-52 57 -52 57 -50 57 C-49.74089844 56.40316406 -49.48179687 55.80632812 -49.21484375 55.19140625 C-47.90070025 52.8208773 -46.65528302 51.638702 -44.5625 49.9375 C-39.05064186 45.28058336 -34.06370708 40.1318287 -29 35 C-27.66582031 33.68322266 -27.66582031 33.68322266 -26.3046875 32.33984375 C-23.9193393 30.00899919 -23.9193393 30.00899919 -21.8125 27.1875 C-21.214375 26.465625 -20.61625 25.74375 -20 25 C-19.34 25 -18.68 25 -18 25 C-17.773125 24.29875 -17.54625 23.5975 -17.3125 22.875 C-15.68313471 19.30591412 -13.56822931 16.96334151 -11 14 C-10.67 13.34 -10.34 12.68 -10 12 C-9.34 12 -8.68 12 -8 12 C-8 11.34 -8 10.68 -8 10 C-7.34 10 -6.68 10 -6 10 C-5.67 8.68 -5.34 7.36 -5 6 C-4.34 6 -3.68 6 -3 6 C-2.5359375 4.7934375 -2.5359375 4.7934375 -2.0625 3.5625 C-1 1 -1 1 0 0 Z " fill="#F53356" transform="translate(408,274)"/>
<path d="M0 0 C5.15384615 2.06153846 5.15384615 2.06153846 7 6 C7.61230469 6.30550781 8.22460938 6.61101562 8.85546875 6.92578125 C11.16889217 8.0845999 12.48257025 9.3128233 14.25 11.1875 C17.9863845 15.02592861 21.93817205 18.51115718 26 22 C28.4602173 24.12282435 30.91795456 26.24850562 33.375 28.375 C34.02799072 28.93993164 34.68098145 29.50486328 35.35375977 30.08691406 C39.89053115 34.01912256 44.37286413 38.00635248 48.82421875 42.03515625 C53.21604164 46.00120098 57.68048058 49.88045485 62.1875 53.71484375 C67.94263982 58.61573633 73.64923913 63.54164262 79.1875 68.6875 C83.88946059 73.0428013 88.71617798 77.12569871 93.72265625 81.125 C95.60176953 82.67212586 97.32294169 84.24046341 99 86 C97.97380474 88.81263268 97.21580785 89.86892639 94.61914062 91.44604492 C93.15250977 92.11277222 93.15250977 92.11277222 91.65625 92.79296875 C83.9121944 96.46954473 76.64797212 100.83130448 69.296875 105.22851562 C67.77320313 106.13053711 67.77320313 106.13053711 66.21875 107.05078125 C65.31060547 107.59387939 64.40246094 108.13697754 63.46679688 108.6965332 C61.26470714 109.86012753 59.43256457 110.54123308 57 111 C57 111.66 57 112.32 57 113 C56.36578125 113.29390625 55.7315625 113.5878125 55.078125 113.890625 C47.31999227 117.61967222 40.01200831 121.91919606 32.66064453 126.38574219 C26.57716575 130.07596551 20.43567926 133.63087605 14.20019531 137.05786133 C11.27396763 138.67546301 8.49604897 140.34805251 5.7421875 142.25 C3 144 3 144 0 144 C0 96.48 0 48.96 0 0 Z " fill="#FEFDFE" transform="translate(214,194)"/>
<path d="M0 0 C3.37462715 0.54723683 5.08235 1.0549 8 3 C8 3.66 8 4.32 8 5 C8.58813477 5.12802002 9.17626953 5.25604004 9.78222656 5.38793945 C13.38897874 6.38333 16.51257091 8.3548788 19.75 10.1875 C20.53439453 10.62747314 21.31878906 11.06744629 22.12695312 11.52075195 C30.69245667 16.34841484 39.17247182 21.32365102 47.65625 26.29296875 C54.08759823 30.05753891 60.54187215 33.78161092 67 37.5 C86.74091017 48.87439842 106.40039489 60.38390508 126 72 C125.78222656 73.8137207 125.78222656 73.8137207 125 76 C123.03808594 77.53979492 123.03808594 77.53979492 120.484375 78.98046875 C119.56269531 79.50447266 118.64101563 80.02847656 117.69140625 80.56835938 C116.72074219 81.10267578 115.75007813 81.63699219 114.75 82.1875 C113.79480469 82.73341797 112.83960938 83.27933594 111.85546875 83.84179688 C107.54449057 86.26110104 103.93020717 88.23578483 99 89 C98.1028125 87.7934375 98.1028125 87.7934375 97.1875 86.5625 C93.96173837 82.68798184 90.08684112 79.75504278 86.16015625 76.62109375 C82.62155907 73.7417237 79.31686815 70.62942842 76 67.5 C71.08744196 62.87328769 66.04873142 58.52725202 60.77734375 54.30859375 C56.99182718 51.16198293 53.42494838 47.80312334 49.83349609 44.43896484 C46.50827677 41.34205297 43.11270929 38.40371008 39.5625 35.5625 C33.86143739 30.98664711 28.57062011 26.02432151 23.2421875 21.02734375 C18.73915912 16.80689407 14.15458005 12.70362144 9.3125 8.875 C6.68643066 6.74575459 4.3572654 4.42097527 2 2 C1.34 1.34 0.68 0.68 0 0 Z " fill="#FA8D9C" transform="translate(214,193)"/>
<path d="M0 0 C0.33 0 0.66 0 1 0 C1 47.52 1 95.04 1 144 C1.99 144.33 2.98 144.66 4 145 C2.68 145 1.36 145 0 145 C-0.06058594 143.69804687 -0.12117187 142.39609375 -0.18359375 141.0546875 C-0.26804562 139.32811601 -0.35269126 137.601554 -0.4375 135.875 C-0.49647461 134.59109375 -0.49647461 134.59109375 -0.55664062 133.28125 C-0.78156402 128.78278208 -1.13540883 124.43193793 -2 120 C-2.66 120 -3.32 120 -4 120 C-4.85675385 114.83279599 -5.13467581 109.89219378 -5.09765625 104.66015625 C-5.0962413 103.89319931 -5.09482635 103.12624237 -5.09336853 102.33604431 C-5.08781766 99.9114881 -5.07527463 97.48702781 -5.0625 95.0625 C-5.05747864 93.40820447 -5.05291685 91.75390747 -5.04882812 90.09960938 C-5.03786438 86.06636988 -5.02063424 82.03320114 -5 78 C-4.01 78 -3.02 78 -2 78 C-2.01047363 76.98728027 -2.02094727 75.97456055 -2.03173828 74.93115234 C-2.26677655 49.87785551 -1.60862408 25.00212531 0 0 Z " fill="#F3506F" transform="translate(213,194)"/>


<path d="M0 0 C0.66 0.33 1.32 0.66 2 1 C1.566875 1.48210937 1.13375 1.96421875 0.6875 2.4609375 C0.130625 3.09257812 -0.42625 3.72421875 -1 4.375 C-1.556875 5.00148438 -2.11375 5.62796875 -2.6875 6.2734375 C-4.20172487 7.90389833 -4.20172487 7.90389833 -4 10 C-5.134375 10.28875 -6.26875 10.5775 -7.4375 10.875 C-8.613125 11.24625 -9.78875 11.6175 -11 12 C-11.33 12.66 -11.66 13.32 -12 14 C-15.5 15.5 -15.5 15.5 -19 17 C-19.33 17.66 -19.66 18.32 -20 19 C-21.32 18.67 -22.64 18.34 -24 18 C-24 18.66 -24 19.32 -24 20 C-24.99 20 -25.98 20 -27 20 C-27 20.66 -27 21.32 -27 22 C-30.67452438 24.8394052 -32.26886581 26 -37 26 C-39.33634657 26.31151288 -41.67038557 26.64159778 -44 27 C-38.10203835 22.02359486 -31.57410437 18.28558611 -24.83203125 14.58984375 C-20.93980265 12.40482714 -17.09566409 10.14073539 -13.25 7.875 C-12.14990601 7.22688354 -12.14990601 7.22688354 -11.02758789 6.56567383 C-10.32239014 6.14954834 -9.61719238 5.73342285 -8.890625 5.3046875 C-8.21837891 4.90991211 -7.54613281 4.51513672 -6.85351562 4.10839844 C-5.25142374 3.15035087 -3.67739258 2.1456671 -2.109375 1.1328125 C-1.41328125 0.75898438 -0.7171875 0.38515625 0 0 Z " fill="#F34765" transform="translate(261,311)"/>
</svg>